<svg xmlns="http://www.w3.org/2000/svg" data-name="Layer 1" viewBox="0 0 512 512"><path d="M107.61 144.56a7.5 7.5 0 0 0-10.26 2.68l-.2.35a7.5 7.5 0 1 0 10.46-3Zm-25.1 84.71H83a7.54 7.54 0 1 0-7.51-8.27v.34a7.49 7.49 0 0 0 7.02 7.93Zm45.16 132.79a7.48 7.48 0 1 0-.18-.18ZM83.37 254a7.5 7.5 0 0 0 7-7.94v-.3a7.5 7.5 0 1 0-7.46 8.24Zm-1.63-7.41 1.17-.07-1.27.08Zm18.54 45.48a7.5 7.5 0 0 0-14.15 5c0 .09.1.27.14.36a7.49 7.49 0 0 0 7 4.79 7.34 7.34 0 0 0 2.7-.51 7.51 7.51 0 0 0 4.31-9.65Zm10.46 50.36.06.08a7.39 7.39 0 0 0 6 3 7.55 7.55 0 1 0-6-3.09Zm-22.82-64.1a7.51 7.51 0 0 0 5.78-8.89.8.8 0 0 1 0-.15 7.5 7.5 0 0 0-14.7 3.2l7.36-1.49-7.36 1.54a7.49 7.49 0 0 0 7.33 5.94 7.68 7.68 0 0 0 1.59-.16Zm12 32.25a7.53 7.53 0 0 0-3 10.16l6.63-3.51-6.61 3.53a7.5 7.5 0 1 0 13.23-7.06l-.1-.18a7.48 7.48 0 0 0-10.2-2.95Zm-9.06-130a7.43 7.43 0 0 0 2.64.49 7.52 7.52 0 1 0-7-10.25l-.06.17a7.45 7.45 0 0 0 4.37 9.57Zm-5.88 24.06a7.39 7.39 0 0 0 1.54.16 7.52 7.52 0 1 0-7.31-9.1v.09a7.47 7.47 0 0 0 5.72 8.83ZM241 470.48h30a7.5 7.5 0 0 0 0-15h-22.5v-15H271a7.5 7.5 0 0 0 0-15h-22.5v-15H271a7.5 7.5 0 0 0 0-15h-30a7.5 7.5 0 0 0-7.5 7.5v60a7.5 7.5 0 0 0 7.5 7.5Zm120-15a7.5 7.5 0 0 0 0 15h30a7.5 7.5 0 0 0 7.5-7.5V433a7.5 7.5 0 0 0-7.5-7.5h-22.5v-15H391a7.5 7.5 0 0 0 0-15h-30a7.5 7.5 0 0 0-7.5 7.5v30a7.5 7.5 0 0 0 7.5 7.5h22.5v15Zm-181.86 15a7.5 7.5 0 0 0 7.5-7.5v-22.5h15V463a7.5 7.5 0 0 0 15 0v-60a7.5 7.5 0 0 0-15 0v22.5h-15V403a7.5 7.5 0 0 0-15 0v60a7.5 7.5 0 0 0 7.5 7.48Zm121.86-15a7.5 7.5 0 0 0 0 15h30a7.5 7.5 0 0 0 7.5-7.5V433a7.5 7.5 0 0 0-7.5-7.5h-22.5v-15H331a7.5 7.5 0 0 0 0-15h-30a7.5 7.5 0 0 0-7.5 7.5v30a7.5 7.5 0 0 0 7.5 7.5h22.5v15ZM121.84 124.34a7.51 7.51 0 0 0-10.53 1.32l-.16.22a7.52 7.52 0 0 0 6 12 7.42 7.42 0 0 0 6-3 7.5 7.5 0 0 0-1.31-10.54Zm197.49 97.12a7.5 7.5 0 1 0-14.68 3 132.56 132.56 0 0 1-10.76 85.16 7.5 7.5 0 1 0 13.46 6.63 147.69 147.69 0 0 0 11.98-94.79Zm-63-50.52a15 15 0 1 0 15 15 15 15 0 0 0-15.04-15ZM121 470.48h30a7.5 7.5 0 0 0 0-15h-22.5v-45H151a7.5 7.5 0 0 0 0-15h-30a7.5 7.5 0 0 0-7.5 7.5v60a7.5 7.5 0 0 0 7.5 7.5Zm148-416.6h-.33a7.5 7.5 0 0 0-.93 15h.59a7.5 7.5 0 0 0 .67-15Zm131.69 71.73a7.5 7.5 0 0 0-12 9l.26.32a7.5 7.5 0 0 0 11.76-9.3Zm-272.5-19.3-.07.06a8.2 8.2 0 1 0 .07-.06Zm283.61 51.16a7.52 7.52 0 0 0 2.87-10.21l-6.58 3.6 6.57-3.62a7.5 7.5 0 0 0-13.14 7.25.83.83 0 0 1 .09.16 7.48 7.48 0 0 0 10.19 2.82Zm-69.18-82-.18-.1a7.5 7.5 0 0 0-7.07 13.23 7.41 7.41 0 0 0 3.62.94 7.5 7.5 0 0 0 3.63-14.07Zm21.64 13.9-.08-.06a7.45 7.45 0 0 0-10.45 1.59 7.55 7.55 0 0 0 1.61 10.52 7.41 7.41 0 0 0 4.45 1.48 7.5 7.5 0 0 0 4.47-13.53Zm57.22 198a7.49 7.49 0 0 0-9.65 4.39 1.8 1.8 0 0 0-.08.21 7.52 7.52 0 0 0 4.55 9.61 7.63 7.63 0 0 0 2.52.43 7.46 7.46 0 0 0 7-5l-7-2.65 7 2.63a7.49 7.49 0 0 0-4.34-9.59Zm-47.54 63.84-.18.18a7.51 7.51 0 0 0 5.4 12.73 7.43 7.43 0 0 0 5.38-2.3l-5.29-5.31 5.3 5.3a7.5 7.5 0 1 0-10.61-10.6Zm96.13 33.26L500 339.21a7.5 7.5 0 0 0-6.26-11.63H446.3a212.16 212.16 0 0 0 21.55-93.16c0-116.82-95-211.86-211.85-211.86S44.14 117.6 44.14 234.42a212.19 212.19 0 0 0 21.55 93.16H18.31a7.5 7.5 0 0 0-6.22 11.69l29.85 44.3-29.89 45.28a7.5 7.5 0 0 0 6.26 11.63H83.5V493a7.5 7.5 0 0 0 7.5 7.5h330a7.5 7.5 0 0 0 7.5-7.5v-52.5h65.19a7.5 7.5 0 0 0 6.22-11.69ZM83.5 373v52.5H32.25l25-37.83a7.5 7.5 0 0 0 0-8.32l-24.84-36.77h41.41a213.68 213.68 0 0 0 15.84 23A7.5 7.5 0 0 0 83.5 373Zm330 112.5h-315v-105h315ZM318.85 319a7.27 7.27 0 0 0-.43.83l-6.83 15.66H192.94l.4-13.81L215.72 302a91.06 91.06 0 0 0 27.64-44.14l3.89-13.69a64.49 64.49 0 0 0 41.63-16 7.5 7.5 0 0 0-9.88-11.31 49.79 49.79 0 0 1-65.23.25 7.49 7.49 0 0 0-8.38-1.45l-18.62 8.57a.86.86 0 0 1-1.1-.32l-4.61-7.11a.89.89 0 0 1 .16-1.14l72-63.8a13.09 13.09 0 0 0 4.41-9.79v-10.24L287 149.6a73.75 73.75 0 0 1 17.15 14.17A131.63 131.63 0 0 1 318.85 319Zm5.56 46.49h-147.1l3.83-12.11.06-.18.85-2.71h137.62Zm7.59-39.25a147.15 147.15 0 0 0-16.6-172.43 89.2 89.2 0 0 0-20.61-17.05L254 112.11a7.49 7.49 0 0 0-11.38 6.42v22.68l-71.39 63.22a15.8 15.8 0 0 0-2.8 20.52l4.6 7.11a16 16 0 0 0 20 5.8l14.36-6.62a64.19 64.19 0 0 0 24.69 11.35l-3.17 11.18a76.07 76.07 0 0 1-23.11 36.93l-24 21.11a7.49 7.49 0 0 0-3.4 6.07l-.5 17.6h-1.38a7.47 7.47 0 0 0-6.19 3.29A135.24 135.24 0 0 1 121 234.42c0-74.44 60.56-135 135-135s135 60.56 135 135a134 134 0 0 1-57.37 110.46l-1.31-4.16a7.53 7.53 0 0 0-4.57-4.77Zm70.88 39.24H361a9.37 9.37 0 0 0-1.06 0h-19.79l-1.8-5.68A149.84 149.84 0 0 0 406 234.42c0-82.71-67.29-150-150-150s-150 67.29-150 150a150.26 150.26 0 0 0 59.26 119.43l-3.68 11.63h-9.45a8.55 8.55 0 0 0-1.24 0h-41.75a195.91 195.91 0 0 1-50-131.06c0-108.55 88.31-196.86 196.86-196.86s196.85 88.31 196.85 196.86a196 196 0 0 1-50 131.06Zm25.64 60V373a7.5 7.5 0 0 0-6.17-7.37 213.23 213.23 0 0 0 15.85-23h41.57l-25 37.83a7.5 7.5 0 0 0 0 8.32l24.76 36.75ZM319.06 64.71l-2.66 7 2.64-7a7.5 7.5 0 1 0-5.27 14l.22.08a7.39 7.39 0 0 0 2.52.44 7.5 7.5 0 0 0 2.55-14.56Zm93.13 245.61a7.56 7.56 0 1 0 3 10.34s.08-.15.09-.19a7.51 7.51 0 0 0-3.09-10.15ZM399.8 331.8a7.52 7.52 0 0 0-9 12.09 7.48 7.48 0 0 0 10.49-1.56l.06-.08a7.47 7.47 0 0 0-1.55-10.45Zm-16.07-225.62a7.46 7.46 0 0 0-10.57 0 7.52 7.52 0 1 0 10.64 0ZM217.55 57.52h-.1a7.5 7.5 0 0 0 1.64 14.82 7.7 7.7 0 0 0 1.57-.17 7.5 7.5 0 1 0-3.11-14.67Zm-24.67 7.22-.22.08a7.55 7.55 0 1 0 .22-.08ZM243 53.88a7.5 7.5 0 0 0 .46 15h.79a7.5 7.5 0 0 0-1.25-15Zm51.31 3.61h-.1a7.44 7.44 0 0 0-8.84 5.79 7.52 7.52 0 1 0 8.94-5.77ZM147.67 89.41l-.08.06a7.48 7.48 0 0 0 4.51 13.47 7.5 7.5 0 1 0-4.43-13.53Zm21.72-14-.18.1a7.48 7.48 0 1 0 .18-.1Zm254.5 114.2a7.5 7.5 0 0 0-5.78 8.9c0 .07.06.23.07.3a7.52 7.52 0 0 0 7.29 5.74 7.71 7.71 0 0 0 1.77-.21 7.55 7.55 0 0 0-3.35-14.73ZM411.44 176a7.5 7.5 0 1 0 14-5.27l-.06-.16a7.46 7.46 0 0 0-9.65-4.26 7.55 7.55 0 0 0-4.29 9.69Zm18.11 62.68a7.54 7.54 0 0 0-1.13 15h.69a7.5 7.5 0 0 0 7.46-6.82v-.34a7.49 7.49 0 0 0-7.02-7.82Zm-2.29 24.68a7.52 7.52 0 0 0-3.13 14.72 7.68 7.68 0 0 0 1.57.16 7.5 7.5 0 0 0 7.33-5.94v-.1a7.46 7.46 0 0 0-5.77-8.82Zm1.32-49.36a7.49 7.49 0 0 0-7 7.93v.33a7.5 7.5 0 0 0 7.46 6.83 5.32 5.32 0 0 0 .69 0 7.55 7.55 0 0 0-1.13-15Z"/></svg>
